<svg width="200" height="200" viewBox="0 0 200 200" xmlns="http://www.w3.org/2000/svg">
  <!-- 企鹅主体 -->
  <path
    d="M100 10
       C140 10 160 40 160 80
       L160 120
       C160 140 150 150 140 160
       L130 170
       C150 175 160 180 160 190
       C140 185 120 180 100 180
       C80 180 60 185 40 190
       C40 180 50 175 70 170
       L60 160
       C50 150 40 140 40 120
       L40 80
       C40 40 60 10 100 10Z"
    fill="#1E97F1"
  />
  
  <!-- 左翅膀 -->
  <path
    d="M40 100
       C30 110 25 120 25 130
       C25 140 30 145 40 145
       L40 100Z"
    fill="#1E97F1"
  />
  
  <!-- 右翅膀 -->
  <path
    d="M160 100
       C170 110 175 120 175 130
       C175 140 170 145 160 145
       L160 100Z"
    fill="#1E97F1"
  />
</svg> 