<svg width="200" height="200" viewBox="0 0 200 200" xmlns="http://www.w3.org/2000/svg">
  <path
    d="M180 110
       C180 150 120 190 70 190
       C30 190 10 170 10 140
       C10 110 30 90 60 90
       C70 90 75 85 70 75
       C65 65 65 55 75 50
       C85 45 95 50 100 60
       C105 70 110 75 120 70
       C140 60 150 70 150 85
       C160 80 170 85 180 110Z"
    fill="#FF5151"
  />
  <!-- 眼睛 -->
  <circle cx="60" cy="130" r="8" fill="white"/>
  <circle cx="100" cy="130" r="8" fill="white"/>
  <!-- 信号波纹 -->
  <path
    d="M150 40
       A8 8 0 1 1 165 40
       A25 25 0 1 0 150 40Z"
    fill="#FF5151"
  />
</svg> 