<svg width="200" height="200" viewBox="0 0 200 200" xmlns="http://www.w3.org/2000/svg">
  <path
    d="M70 40
       C110 40 140 60 140 90
       C140 120 110 140 70 140
       L60 150
       C58 152 55 150 57 148
       L65 140
       C35 130 20 110 20 90
       C20 60 50 40 70 40Z
       M130 60
       C160 60 180 80 180 100
       C180 120 160 140 130 140
       C100 140 80 120 80 100
       C80 80 100 60 130 60Z"
    fill="#07C160"
  />
  <!-- 对话点 -->
  <circle cx="50" cy="90" r="5" fill="white"/>
  <circle cx="80" cy="90" r="5" fill="white"/>
  <circle cx="110" cy="90" r="5" fill="white"/>
  <circle cx="140" cy="110" r="5" fill="white"/>
  <circle cx="170" cy="110" r="5" fill="white"/>
</svg> 